<svg version="1.0" xmlns="http://www.w3.org/2000/svg"
 width="194.000000pt" height="48.000000pt" viewBox="0 0 194.000000 48.000000"
 preserveAspectRatio="xMidYMid meet">
<g transform="translate(0.000000,48.000000) scale(0.100000,-0.100000)"
fill="#000000" stroke="none">
<path d="M1140 439 c-37 -15 -68 -48 -75 -80 -5 -22 1 -43 24 -84 37 -65 38
-85 8 -113 -32 -30 -67 -29 -67 1 0 28 17 47 43 47 34 0 15 35 -20 38 -47 5
-83 -34 -83 -88 0 -37 3 -42 33 -55 59 -25 143 6 176 65 28 50 27 73 -10 136
-33 58 -32 86 2 104 37 20 52 -9 22 -42 -15 -17 -15 -20 -3 -28 21 -14 28 -12
50 10 58 58 -15 123 -100 89z"/>
<path d="M225 421 c-81 -37 -136 -127 -89 -145 22 -9 34 1 34 29 0 24 59 102
60 79 0 -6 -29 -73 -65 -148 -36 -75 -65 -139 -65 -141 0 -3 11 -5 24 -5 13 0
47 -20 78 -45 71 -59 104 -60 141 -5 23 34 22 37 -17 32 -22 -3 -50 5 -85 22
-28 15 -51 28 -51 30 0 9 133 292 142 304 16 19 -60 15 -107 -7z"/>
<path d="M356 411 c-23 -25 -17 -55 12 -59 32 -5 54 16 50 47 -4 33 -37 39
-62 12z"/>
<path d="M1333 403 c-21 -3 -34 -11 -38 -24 -4 -11 -16 -28 -27 -39 -11 -10
-18 -24 -15 -32 2 -7 -6 -33 -18 -58 -38 -76 -49 -119 -35 -135 16 -19 47 -19
84 0 26 14 31 14 46 0 37 -33 103 -8 150 57 17 22 30 47 30 55 0 7 7 13 15 13
20 0 20 -1 -15 -70 -16 -33 -30 -62 -30 -65 0 -3 16 -5 36 -5 35 0 36 1 77 90
37 82 67 120 67 85 0 -24 38 -17 56 10 24 37 7 51 -69 53 -62 2 -64 1 -78 -30
-18 -40 -39 -48 -39 -15 0 35 -23 51 -66 44 -52 -9 -99 -49 -130 -113 -25 -52
-47 -74 -60 -61 -9 9 66 147 80 147 8 0 16 7 20 15 3 9 0 15 -10 15 -14 0 -13
5 5 35 13 22 16 34 8 33 -7 0 -26 -3 -44 -5z m143 -122 c-10 -10 -16 -25 -15
-33 3 -26 -1 -37 -27 -67 -46 -55 -60 -31 -23 42 27 53 48 77 67 77 13 0 12
-3 -2 -19z"/>
<path d="M285 263 c-66 -143 -62 -159 47 -161 l73 -1 39 84 c37 81 60 114 72
103 3 -3 -13 -45 -36 -93 -22 -48 -40 -89 -40 -91 0 -2 17 -4 38 -4 37 0 37 1
72 81 34 78 63 119 77 106 3 -4 -8 -38 -26 -76 -17 -38 -29 -76 -25 -85 9 -24
49 -30 85 -12 27 14 33 14 46 1 26 -26 72 -18 109 19 43 43 44 61 0 35 -27
-16 -35 -17 -44 -6 -15 18 -2 33 35 41 36 8 93 66 93 95 0 53 -82 52 -138 -1
-19 -18 -45 -57 -58 -85 -14 -30 -30 -53 -39 -53 -20 0 -19 2 10 60 33 65 33
108 1 116 -13 3 -37 -1 -54 -10 -25 -13 -31 -13 -35 -2 -4 10 -27 14 -77 14
l-71 1 -40 -85 c-37 -77 -67 -113 -82 -97 -3 3 12 41 33 84 22 43 40 83 40 89
0 5 -16 10 -35 10 -33 0 -36 -3 -70 -77z m566 19 c-13 -24 -50 -56 -57 -49 -9
9 35 67 52 67 11 0 12 -5 5 -18z"/>
<path d="M1780 322 c-75 -38 -138 -177 -95 -209 40 -29 107 -7 138 46 19 33
14 40 -12 17 -26 -23 -56 -24 -56 -2 0 14 10 22 30 28 44 11 95 64 95 98 0 43
-41 52 -100 22z m51 -40 c-12 -22 -50 -57 -55 -51 -9 8 36 69 50 69 11 0 12
-5 5 -18z"/>
</g>
</svg>
